<svg xmlns="http://www.w3.org/2000/svg" width="1440" height="1440" version="1.0" viewBox="0 0 1080 1080"><path d="M739.4 248.9c-19.2 42.9-35.2 77.8-35.5 77.6-.3-.2-1.1-3-1.9-6.2-3.6-16.1-15.1-40.9-26.4-56.6-18.4-25.7-43.1-46-75.1-61.8-46.3-22.7-95.9-27.5-149.5-14.3-19 4.7-33.1 9.9-51.5 18.9-48.2 23.7-80.9 58.6-99.1 105.5-4.1 10.8-9.1 30-10 38.6l-.6 6.1-9.4 2.6c-50.1 14.1-104.4 51.9-136.9 95.2-22.7 30.4-35.8 60.9-41.1 95.7-2.1 13.7-2.4 42-.5 55.8 8.6 64.2 40.6 113.5 88.6 136.5l9.3 4.5 1.7 7.2c2.6 10.6 7.3 24.4 10.7 31.3 11.5 22.9 29.7 40.7 52.2 51 42.4 19.3 96.9 25.1 212.1 22.6 86-1.8 193.4-3.5 193.9-3 .4.4-9.9 109.6-13.7 144.7-.2 2.5 0 2.9.9 2 .6-.7 27.1-32.4 58.9-70.3 31.8-38 58.1-69.1 58.4-69.2.3-.1 26.9 31.3 59.1 69.7 39.7 47.5 58.6 69.4 58.8 68.1.2-1-3.1-36.2-7.2-78.3-4.2-42.1-7.6-77.7-7.6-79.2 0-1.4.6-2.8 1.3-3.1.6-.2 5.4-1.5 10.5-2.9 13.7-3.8 30.1-10.7 40.5-17 30.6-18.3 57.1-50.8 67.2-82.1 4.3-13.2 5.7-24.2 5.3-40.2-.1-7.9-.1-14.3.3-14.3.3 0 1 .5 1.7 1.2 1.8 1.8 1.5.5-1.4-5.9-1.4-3.2-3.7-9.9-4.9-14.8-5.6-21.4-14.1-40.7-25.3-57.6-6.1-9.2-17.9-35-102.3-223.2C818.5 266.7 775.3 171 775 171c-.4 0-16.4 35.1-35.6 77.9zm-207.4-.5c25.3 5.4 50.2 18.4 71 37.1 21 18.7 31.1 34.2 40.6 62.1 6.4 18.5 6.9 27.1 2.9 47.1-4.5 22.8-9.8 39.2-23 71.4-4.1 10.1-7.5 18.9-7.5 19.6 0 3 3.2.7 14.5-10.7 6.5-6.5 12.1-11.8 12.2-11.6.2.2-21.9 50.2-49.2 111.1-27.3 60.9-49.5 110.8-49.3 111 .2.2 34.9-25.4 77.1-56.7 42.2-31.4 77-56.8 77.2-56.6.5.4-20.5 216-21.1 216.7-.2.2-25.9.7-57.1 1.2-31.2.5-75 1.3-97.3 1.9-52.1 1.3-136.5 1.3-156.2 0-57.1-3.9-75.7-12.8-69.5-33.4 1.2-3.8 1.3-3.8 10.2-6.1 40.4-10.3 66-32.2 76.1-65 2.6-8.4 2.8-10.2 2.8-26.5s-.2-18.1-2.8-26.5c-11.4-37.2-37.2-54.3-78.6-52.1-11.6.6-38.5 4.6-41 6.1-1.7 1.1-1.1 3.5 1.3 4.5 1.2.5 7.2 1.9 13.2 3.1 28.4 5.5 44.9 14 51.3 26.3 3.7 7.3 4.3 20.6 1.3 30.4-3.9 12.8-13.9 23.8-27.6 30.2-10.2 4.8-18.1 6.8-32.7 8.2-28.2 2.8-53.6-4.7-70.8-20.8-29.9-28.2-42.2-86.2-27.8-131.3 7.6-24.1 25.7-51.3 45.7-69 21.9-19.2 38.6-24.9 77.8-26.4l10.2-.4 4.7 7.1c7.4 11.2 12.6 17.5 21.6 26.4 21.7 21.4 47.1 34.5 75.2 38.9 14.5 2.2 34.8 1.3 48.1-2.1 29.7-7.7 53.8-27.4 66.1-54.1 12.3-26.6 11.8-57.6-1.1-77.2-17-25.7-49.7-35.3-75.8-22.2-11.5 5.9-25.6 16.6-24.4 18.6.4.7 5.2.9 14 .5 14.9-.5 20.7.6 31 6.1 10.7 5.6 14.9 12.9 16.2 28.2 1.3 14.2-4.4 30.6-13.6 38.9-12 10.8-35.2 13.5-55.9 6.6-25.4-8.4-47.7-35-55.1-65.5-6.4-26.7 2.1-61.8 21.3-87.7 22.4-30 63-51.6 109.8-58.4 11.7-1.7 33.6-1.2 44 1zm309.8 172.7c36.5 82.6 66.1 150.5 66 150.9-.2.3-20.1-11.8-44.3-27.1l-44-27.8-.2 5.2c-.2 2.9 4.6 82.3 10.5 176.5C835.7 792.9 840.3 870 840 870c-.3 0-14.9-17.3-32.5-38.4-17.6-21.2-32.2-38.5-32.5-38.5-.3 0-14.9 17.3-32.5 38.5-17.6 21.1-32.3 38.4-32.6 38.4-.3 0-.4-2.1-.2-4.8 1.4-17.5 21.3-342.3 21.1-344.9l-.3-3.2-44 27.8c-24.2 15.3-44.1 27.4-44.3 27-.2-.4 28.9-67.1 64.6-148.1 75-170 67.3-152.8 68.2-152.8.3 0 30.4 67.6 66.8 150.1zm60.7 206.3c10.1 6.7 17.8 16.3 25.4 31.5 11.9 23.7 15.2 48.4 8.8 65.4-7.2 18.6-23.1 35.6-41.3 43.8-6.2 2.8-23.4 8.2-24 7.6-.2-.2-3.4-31-7.1-68.5l-6.7-68.1 5.5-5.8c3-3.2 7.6-8.3 10.2-11.5l4.8-5.6 9.7 3.9c5.3 2.2 12 5.5 14.7 7.3z"/></svg>