<svg xmlns="http://www.w3.org/2000/svg" width="1440" height="1440" version="1.0" viewBox="0 0 1080 1080"><path d="M489 176c-58 5-117 32-153 71-25 26-44 65-48 99l-1 9-7 2c-21 5-51 18-71 32-64 43-100 94-112 159-3 15-3 51-1 68 8 49 28 90 57 114 10 9 18 14 29 19l10 4-1 6c0 7 3 19 10 34 19 40 52 58 122 67 37 4 86 5 193 2l135-2c97-1 140-3 177-7 76-7 116-24 149-64 24-28 34-55 33-90-1-17-3-29-9-47-14-42-42-76-78-94l-8-4 2-9c3-12 3-40 0-55-7-33-25-65-50-90-38-38-94-64-154-71l-6-1-3-10a189 189 0 0 0-102-121 206 206 0 0 0-113-21zm43 70c29 6 55 20 79 44a126 126 0 0 1 39 80c1 20-7 51-24 93l-9 22c0 3 4 0 21-18 32-32 47-50 55-66l4-7h7c26 2 66 17 92 35a127 127 0 0 1 52 68c4 12 5 34 3 48a215 215 0 0 1-78 119c-10 7-12 9-12 11 0 5 3 5 17 3 43-7 73-23 98-53l6-8 9 4c21 8 32 19 42 42 8 18 9 25 9 41 0 12 0 14-2 20-6 17-20 35-37 44-7 4-24 9-37 12-35 7-85 10-194 12l-114 2c-139 3-150 3-179 2-58-2-80-7-87-19-2-3-2-9 0-11l9-1c34-3 66-18 83-38s24-50 19-79c-2-14-4-20-10-33-5-10-6-12-14-20-7-7-10-10-17-13-22-10-44-10-83 1l-17 6c-5 4-1 4 18 5 40 2 58 9 66 26 6 13 5 34-3 50-3 7-12 16-19 20-22 11-74 12-103 2-10-3-17-7-25-14-17-17-29-47-32-83a149 149 0 0 1 73-142c13-6 33-10 52-10l11-1c3-1 3 0 7 7 22 34 56 58 93 66 14 2 38 2 51-1a101 101 0 0 0 78-77c2-10 2-29 0-37-10-38-52-59-85-42-12 6-25 16-25 19h12c14 0 21 1 31 5 13 7 18 14 19 30 1 20-7 37-21 45-15 7-38 7-56-2a90 90 0 0 1-51-78c0-15 1-24 5-38 13-40 46-70 94-86 28-9 57-12 80-7z"/><path d="M599 532c-14 1-34 6-47 12-16 7-34 20-44 32-27 35-28 89-2 115 11 11 30 19 54 24l43 4c6 0 3-3-6-7-25-11-39-20-49-30-7-7-11-14-14-23-4-17 6-41 24-59 19-18 53-28 82-23 16 3 25 9 29 18 2 6 2 18 0 21-3 4-9 5-18 4l-7 1c0 1 12 9 17 11 6 2 14 2 20 0 12-6 21-24 20-42-1-14-6-25-17-35-5-6-9-8-17-12-19-9-44-14-68-11z"/></svg>