<?xml version="1.0" standalone="no"?>
<!DOCTYPE svg PUBLIC "-//W3C//DTD SVG 20010904//EN"
 "http://www.w3.org/TR/2001/REC-SVG-20010904/DTD/svg10.dtd">
<svg version="1.0" xmlns="http://www.w3.org/2000/svg"
 width="1080.000000pt" height="1080.000000pt" viewBox="0 0 1080.000000 1080.000000"
 preserveAspectRatio="xMidYMid meet">
<metadata>
Created by potrace 1.16, written by Peter Selinger 2001-2019
</metadata>
<g transform="translate(0.000000,1080.000000) scale(0.100000,-0.100000)"
fill="#000000" stroke="none">
<path d="M9745 10360 c-4 -6 -237 -217 -518 -469 -826 -739 -1124 -1022 -1374
-1301 -808 -906 -1192 -1422 -1756 -2361 -632 -1052 -1093 -1864 -1295 -2276
-46 -96 -86 -172 -88 -171 -7 8 -145 399 -274 783 -200 593 -319 901 -503
1305 -242 531 -438 901 -814 1540 -99 168 -211 361 -249 429 -38 68 -75 126
-82 128 -7 3 -74 -7 -148 -23 l-136 -29 -671 -775 c-368 -426 -677 -783 -685
-792 -13 -16 -10 -23 34 -78 31 -38 56 -60 70 -60 11 0 94 20 183 44 190 52
296 70 354 61 56 -9 195 -82 281 -147 263 -198 595 -593 869 -1033 522 -840
903 -1813 1463 -3740 57 -198 108 -366 112 -373 10 -18 593 -285 602 -275 3 4
23 98 44 208 243 1304 842 3064 1586 4665 208 448 580 1138 913 1695 582 971
920 1407 1898 2445 158 168 297 317 308 332 l21 26 -57 39 -58 38 0 84 c0 55
-4 85 -12 88 -6 2 -14 -1 -18 -7z"/>
</g>
</svg>
