<?xml version="1.0" standalone="no"?>
<!DOCTYPE svg PUBLIC "-//W3C//DTD SVG 20010904//EN"
 "http://www.w3.org/TR/2001/REC-SVG-20010904/DTD/svg10.dtd">
<svg version="1.0" xmlns="http://www.w3.org/2000/svg"
 width="1024.000000pt" height="1024.000000pt" viewBox="0 0 1024.000000 1024.000000"
 preserveAspectRatio="xMidYMid meet">
<metadata>
Created by potrace 1.16, written by Peter Selinger 2001-2019
</metadata>
<g transform="translate(0.000000,1024.000000) scale(0.100000,-0.100000)"
fill="#000000" stroke="none">
<path d="M4760 8929 c-62 -12 -210 -28 -365 -39 l-130 -9 -120 -59 c-66 -33
-138 -65 -160 -72 -76 -24 -196 -89 -244 -132 -26 -24 -71 -51 -99 -61 -36
-12 -75 -40 -133 -93 -46 -42 -107 -90 -137 -106 -74 -42 -183 -157 -245 -258
-29 -46 -85 -119 -124 -161 -70 -73 -74 -81 -113 -194 -47 -135 -61 -165 -102
-217 -41 -52 -66 -114 -89 -220 -11 -51 -32 -127 -46 -168 -23 -69 -25 -84
-20 -185 8 -139 -3 -233 -28 -251 -13 -10 -53 -14 -134 -14 -64 0 -156 -7
-206 -15 -49 -9 -139 -18 -199 -22 -101 -6 -115 -9 -195 -48 -47 -23 -108 -47
-135 -54 -67 -17 -192 -91 -282 -167 -42 -36 -106 -80 -142 -98 -67 -34 -159
-119 -212 -196 -13 -19 -41 -55 -63 -80 -21 -25 -48 -63 -59 -85 -11 -22 -37
-60 -58 -85 -71 -86 -115 -191 -139 -334 -17 -106 -27 -140 -57 -193 -37 -67
-154 -373 -185 -483 -10 -36 -18 -90 -18 -122 -1 -31 -10 -85 -21 -120 -27
-85 -25 -167 4 -265 13 -44 31 -140 40 -214 9 -74 28 -168 41 -209 13 -41 29
-106 35 -143 6 -38 28 -107 49 -155 22 -48 44 -107 51 -132 18 -72 31 -101 72
-163 21 -31 50 -83 64 -115 17 -39 46 -77 92 -122 37 -36 87 -88 113 -116 31
-35 56 -53 79 -57 23 -5 54 -28 99 -73 36 -37 90 -80 119 -97 29 -16 77 -52
107 -78 29 -27 79 -61 112 -75 32 -14 69 -31 82 -37 13 -7 41 -40 63 -73 21
-34 55 -75 76 -90 20 -16 57 -50 82 -76 44 -48 132 -104 240 -153 30 -14 98
-48 152 -75 l96 -50 101 0 c76 0 112 -5 150 -20 38 -15 86 -21 208 -26 134 -6
168 -11 223 -31 60 -23 82 -26 295 -31 276 -7 317 -7 465 3 72 4 181 2 290 -6
96 -7 198 -12 225 -12 70 0 314 21 326 28 5 4 42 1 82 -5 102 -15 536 -21 626
-8 55 8 119 8 247 -2 157 -12 180 -12 261 5 73 14 115 16 253 10 91 -3 193
-13 226 -22 51 -12 84 -13 190 -5 71 6 155 8 187 6 38 -3 76 1 112 12 48 15
62 16 124 4 65 -12 74 -11 139 10 69 23 72 23 149 7 64 -13 131 -15 368 -13
239 3 300 1 348 -12 54 -14 63 -14 135 3 42 10 109 22 147 26 145 15 234 36
458 110 31 10 73 19 92 19 53 0 185 54 315 128 91 52 133 84 200 152 47 48 99
94 115 104 38 22 117 125 172 223 25 45 73 108 117 152 78 81 85 95 105 218 6
38 32 109 67 183 l57 122 -8 181 c-8 222 -9 246 -4 322 3 48 -2 73 -23 125
-14 36 -31 92 -38 125 -27 138 -34 158 -71 212 -36 54 -45 81 -64 196 -5 32
-24 57 -108 141 -141 143 -161 156 -249 167 -130 16 -152 76 -92 249 l29 85
-3 247 c-3 327 -12 413 -52 490 -17 32 -34 83 -37 111 -7 63 -21 92 -73 152
-23 26 -57 79 -76 117 -61 121 -143 237 -188 266 -23 14 -72 56 -111 93 -61
59 -79 70 -142 88 -92 28 -248 100 -323 151 -32 22 -92 55 -132 74 -40 18 -93
51 -118 73 -64 57 -100 73 -165 73 -33 0 -84 10 -128 25 -66 24 -77 25 -147
15 -54 -8 -102 -7 -172 1 -72 9 -116 9 -170 1 -103 -16 -254 -9 -278 13 -27
25 -44 107 -36 185 8 90 -4 144 -66 302 -47 122 -57 138 -110 189 -42 41 -67
77 -93 133 -24 53 -55 98 -99 145 -35 38 -77 93 -91 122 -36 73 -59 96 -130
131 -36 19 -98 67 -157 122 -53 51 -125 108 -158 127 -34 19 -81 48 -105 66
-65 47 -109 68 -236 108 -63 20 -166 55 -229 77 -126 43 -322 72 -415 62 -31
-4 -73 0 -111 10 -67 17 -133 19 -204 5z m240 -411 c129 -1 255 1 280 5 42 8
49 5 113 -37 37 -24 82 -48 100 -51 41 -9 127 -56 192 -105 28 -21 69 -46 92
-55 27 -11 60 -38 95 -78 70 -81 86 -94 132 -109 21 -6 59 -30 85 -53 25 -22
63 -53 83 -68 20 -15 51 -53 69 -84 18 -32 58 -86 88 -122 90 -106 155 -227
205 -384 26 -77 51 -168 56 -201 54 -332 52 -307 35 -413 -9 -54 -20 -156 -25
-228 -10 -161 -52 -330 -114 -460 -47 -100 -103 -168 -340 -408 -110 -112
-139 -157 -100 -157 34 0 208 73 291 122 96 56 268 219 333 315 20 29 64 74
97 100 34 26 81 64 105 85 60 50 208 113 365 153 l132 35 103 -35 c57 -18 145
-41 196 -50 112 -19 125 -24 199 -71 162 -105 204 -136 289 -217 l93 -88 44 6
44 7 6 -91 c5 -70 13 -104 36 -153 29 -61 81 -292 81 -357 0 -60 -74 -461 -91
-493 -7 -13 -22 -36 -35 -53 -12 -16 -30 -50 -40 -74 -20 -50 -101 -188 -160
-272 -50 -71 -78 -133 -70 -155 10 -26 78 -12 146 30 32 20 81 41 110 46 28 5
85 24 128 41 56 22 110 34 197 45 66 7 148 18 182 25 56 10 70 9 150 -14 48
-14 113 -32 143 -41 33 -9 66 -26 80 -42 14 -15 48 -44 75 -66 73 -58 182
-193 206 -258 21 -56 44 -261 42 -370 -1 -30 -2 -111 -2 -179 l-1 -123 -61
-143 -61 -143 -163 -160 c-90 -88 -185 -173 -212 -188 -26 -15 -68 -42 -93
-59 -73 -51 -346 -151 -455 -166 -136 -18 -194 -31 -260 -58 -67 -27 -178 -45
-270 -44 -116 2 -453 21 -461 25 -9 6 -306 -17 -354 -27 -14 -3 -95 0 -180 7
-191 14 -273 14 -330 -3 -29 -9 -111 -14 -230 -15 -102 -1 -206 -5 -231 -9
-36 -6 -61 -3 -106 13 -53 18 -68 20 -129 11 -58 -9 -845 -24 -1054 -20 -36 1
-209 2 -385 4 -271 2 -330 5 -386 21 -61 16 -71 16 -142 2 -42 -9 -92 -16
-111 -16 -20 0 -70 -8 -111 -17 -64 -14 -90 -15 -163 -5 -84 10 -306 2 -374
-14 -36 -8 -166 11 -248 37 -95 29 -166 38 -244 28 -60 -8 -81 -5 -164 17
-136 37 -271 93 -288 119 -11 17 -12 29 -5 48 17 43 45 51 191 52 109 1 148 5
204 23 37 12 81 22 97 22 43 0 146 37 209 75 66 41 189 90 248 100 59 10 177
90 291 196 107 101 169 187 213 297 16 42 41 100 54 127 13 28 28 75 34 105 6
30 20 101 32 158 22 101 22 105 5 190 -9 48 -16 125 -16 172 1 49 -5 114 -15
154 -21 90 -91 262 -122 303 -14 18 -84 85 -157 149 -112 99 -148 124 -242
169 -157 77 -217 90 -345 76 -56 -6 -110 -16 -121 -21 -10 -6 -86 -28 -169
-50 -104 -27 -164 -49 -193 -69 -54 -37 -146 -133 -182 -191 -15 -24 -46 -67
-67 -94 -74 -93 -81 -116 -79 -250 1 -103 6 -134 32 -217 32 -103 51 -135 160
-266 53 -63 82 -88 129 -111 82 -41 158 -56 256 -49 136 10 164 21 259 104 47
41 90 83 96 94 16 31 39 177 39 250 0 75 -16 103 -80 144 -66 41 -113 50 -163
31 -64 -24 -125 -80 -133 -121 -8 -42 18 -89 58 -106 84 -35 99 -80 44 -135
-31 -31 -40 -34 -90 -34 -96 0 -151 29 -249 128 -48 49 -89 100 -93 116 -4 16
-2 58 5 95 6 36 16 108 21 160 6 51 15 101 19 110 16 28 154 130 221 163 36
18 85 45 109 60 58 37 101 36 243 -2 196 -53 224 -71 445 -283 83 -80 142
-236 163 -430 7 -65 10 -143 6 -172 -6 -52 -44 -173 -84 -270 -11 -27 -28 -70
-36 -95 -23 -65 -107 -171 -184 -232 -37 -29 -95 -79 -130 -110 -51 -46 -78
-62 -140 -82 -42 -14 -117 -39 -165 -56 -71 -25 -114 -33 -220 -40 -73 -6
-161 -14 -197 -20 -131 -21 -174 -22 -236 -6 -34 9 -88 16 -120 16 -40 0 -78
9 -119 26 -33 14 -86 34 -118 45 -89 30 -238 97 -281 126 -75 49 -183 143
-214 186 -16 24 -59 73 -95 110 -48 49 -77 92 -113 164 -26 54 -68 130 -93
168 -65 103 -86 157 -132 342 l-42 168 13 136 c10 110 10 147 0 189 -17 73 -7
203 24 293 13 40 27 107 31 151 4 43 15 102 25 130 10 29 21 75 25 104 4 28
17 65 28 82 131 182 185 265 208 322 42 101 55 116 174 195 117 77 234 166
331 250 89 76 133 95 244 104 76 6 114 15 182 43 80 33 95 36 189 36 65 0 135
-7 189 -19 47 -11 110 -24 140 -30 30 -6 99 -24 153 -40 107 -32 171 -72 297
-188 37 -34 91 -73 120 -88 29 -15 74 -47 101 -72 92 -86 212 -315 230 -437 5
-35 13 -76 19 -90 15 -39 12 -70 -7 -105 -19 -33 -11 -63 20 -69 23 -5 83 53
107 104 19 38 21 56 16 107 -18 183 -19 252 -3 266 39 32 88 -26 86 -101 -3
-68 20 -158 47 -184 28 -29 35 -29 65 -5 22 18 24 27 24 109 0 118 7 126 95
116 104 -11 288 -5 328 12 19 8 62 21 96 30 34 8 88 31 121 49 33 18 103 52
155 75 127 55 256 130 314 181 26 23 81 94 123 157 58 90 77 128 85 171 5 31
17 90 26 131 20 87 21 346 2 451 -16 92 -69 178 -173 286 -67 70 -106 101
-151 122 -34 16 -111 52 -173 81 l-112 53 -93 -6 c-127 -7 -206 -36 -362 -129
-142 -86 -173 -114 -182 -168 -3 -19 -15 -69 -25 -112 -23 -92 -24 -138 -4
-205 21 -70 43 -94 127 -139 67 -35 80 -38 153 -39 104 0 158 24 163 72 3 28
-3 36 -51 72 -67 49 -99 98 -105 160 -4 45 -2 50 51 111 31 35 66 70 79 77 30
16 90 16 210 -1 77 -11 111 -22 168 -52 123 -66 230 -205 230 -298 0 -22 5
-77 12 -123 10 -72 10 -94 -6 -175 -23 -113 -44 -165 -98 -238 -56 -74 -197
-214 -237 -235 -18 -9 -101 -32 -184 -50 -84 -19 -166 -38 -184 -44 -18 -5
-106 -7 -200 -5 -201 6 -230 14 -492 137 -183 86 -255 137 -302 215 -13 20
-50 67 -84 103 -81 89 -106 139 -154 303 -94 321 -104 490 -39 663 20 50 53
118 75 152 23 33 51 93 63 133 36 120 123 271 195 338 20 19 73 88 117 152 93
136 133 174 280 269 154 98 195 117 296 133 69 11 109 25 179 62 107 55 161
65 338 58 66 -3 226 -5 355 -6z m2824 -1823 c42 -19 103 -41 136 -50 34 -9 86
-32 118 -52 31 -20 107 -59 167 -85 61 -27 121 -56 135 -67 14 -10 59 -61 100
-114 45 -59 95 -110 126 -131 28 -19 54 -41 57 -49 3 -7 32 -47 65 -88 66 -83
86 -118 97 -169 3 -19 21 -84 40 -145 38 -126 75 -348 75 -450 0 -38 -9 -110
-21 -160 -26 -113 -46 -209 -54 -257 -6 -39 -57 -121 -108 -176 -34 -36 -194
-122 -226 -122 -33 0 -26 37 18 86 22 26 50 74 65 115 23 61 26 85 25 182 0
62 5 146 12 187 7 47 9 121 5 200 -5 110 -11 140 -45 240 -85 250 -194 433
-334 559 -127 115 -240 189 -323 210 -38 10 -100 30 -139 44 -38 14 -114 30
-167 36 -54 6 -121 21 -150 32 -74 30 -208 28 -344 -6 -54 -14 -113 -25 -131
-25 -17 0 -62 -16 -99 -35 -77 -40 -99 -43 -114 -14 -16 28 2 70 46 108 45 40
187 116 281 151 43 16 96 36 118 46 44 20 158 30 366 32 125 2 128 1 203 -33z"/>
<path d="M4730 8300 c-25 -4 -85 -15 -135 -24 -53 -9 -133 -15 -195 -14 -125
2 -163 -8 -252 -64 -37 -24 -109 -65 -160 -93 -73 -39 -116 -73 -202 -155
-256 -248 -249 -240 -308 -356 -31 -60 -59 -127 -62 -149 -4 -22 -21 -68 -37
-102 -35 -72 -56 -190 -70 -388 -11 -151 -6 -180 56 -355 13 -36 28 -82 35
-102 6 -20 28 -63 48 -95 21 -32 53 -84 72 -116 20 -34 61 -80 95 -108 86 -71
275 -161 410 -195 164 -42 194 -39 355 30 152 66 287 143 322 184 67 80 99
139 114 212 11 54 12 81 5 97 -18 39 -44 28 -73 -29 -15 -29 -54 -83 -87 -120
-54 -59 -71 -71 -143 -98 -100 -39 -277 -64 -398 -57 -72 4 -101 12 -190 50
-179 75 -228 104 -258 148 -15 22 -46 66 -68 97 -58 79 -124 257 -124 333 0
150 46 452 78 515 11 21 34 75 51 119 55 144 86 182 374 463 72 71 80 76 223
133 241 96 283 106 541 118 133 7 191 6 250 -5 96 -17 263 -18 298 -2 48 22
20 75 -58 108 -47 21 -70 23 -257 25 -113 2 -225 -1 -250 -5z"/>
<path d="M5403 8183 c-19 -7 -16 -38 6 -57 28 -25 93 -32 110 -12 11 13 9 20
-17 46 -29 29 -65 37 -99 23z"/>
<path d="M5834 7536 c-11 -28 3 -43 83 -93 87 -54 186 -152 290 -287 78 -102
95 -116 121 -100 13 9 17 26 17 80 0 101 -26 149 -115 207 -38 26 -99 73 -137
105 -87 75 -122 93 -194 99 -48 5 -60 3 -65 -11z"/>
<path d="M5950 7097 c0 -8 39 -61 86 -117 94 -111 139 -195 149 -275 7 -53 -5
-95 -27 -95 -6 0 -35 22 -63 50 -55 52 -97 70 -124 53 -31 -19 -24 -53 28
-131 80 -122 109 -207 132 -387 15 -119 22 -139 45 -143 31 -5 70 33 99 96 15
31 41 85 58 120 l30 62 -16 75 c-10 42 -17 117 -17 168 0 91 -31 252 -63 329
-24 56 -117 149 -176 175 -71 31 -141 42 -141 20z"/>
<path d="M7734 5995 c-10 -24 15 -46 93 -81 126 -58 145 -74 229 -199 83 -124
118 -165 140 -165 17 0 18 37 3 77 -5 15 -33 63 -61 106 -38 58 -70 92 -127
135 -159 120 -262 167 -277 127z"/>
<path d="M2250 5959 c-25 -12 -76 -25 -115 -31 -69 -10 -200 -55 -286 -98 -88
-45 -145 -90 -204 -162 -33 -40 -94 -109 -136 -153 -81 -86 -132 -179 -205
-370 -19 -49 -53 -126 -75 -170 -34 -69 -42 -97 -55 -200 -8 -66 -21 -172 -29
-235 -11 -86 -12 -131 -4 -180 5 -36 14 -105 18 -155 15 -150 73 -339 131
-425 21 -30 54 -87 74 -127 46 -92 81 -132 148 -168 29 -15 69 -40 88 -55 19
-15 60 -40 90 -55 72 -36 216 -117 310 -174 l75 -46 130 -3 c92 -2 152 1 205
13 41 8 138 20 215 26 198 15 249 28 413 110 168 84 229 136 256 215 9 28 31
73 48 100 55 86 68 124 68 200 0 52 -4 75 -15 84 -23 19 -38 0 -79 -98 -21
-48 -44 -104 -53 -124 -9 -22 -59 -80 -117 -136 -112 -109 -166 -141 -287
-168 -41 -9 -119 -29 -174 -45 -185 -55 -398 -41 -573 37 -31 14 -82 30 -112
36 -65 12 -81 22 -134 87 -23 28 -98 111 -168 185 -104 111 -133 149 -164 213
-20 43 -50 97 -66 121 -19 27 -34 67 -42 115 -8 39 -24 120 -37 179 -21 97
-22 115 -11 178 7 39 12 101 12 138 0 37 7 119 14 183 11 91 19 125 39 155 49
78 85 161 112 257 31 107 48 137 148 256 44 52 89 93 125 114 32 19 89 54 127
79 39 25 93 53 120 62 28 10 102 39 165 65 101 43 127 50 212 55 91 7 100 6
147 -19 28 -14 81 -32 118 -41 38 -8 93 -31 125 -50 67 -41 111 -44 133 -10
35 54 -27 111 -212 196 l-114 51 -177 4 c-162 4 -181 2 -222 -16z"/>
<path d="M7740 5571 c0 -5 28 -44 63 -87 34 -42 74 -93 89 -112 18 -22 49
-100 84 -205 43 -133 59 -197 71 -296 17 -147 28 -176 63 -176 22 0 29 10 58
85 50 125 52 187 12 340 -17 68 -49 161 -70 205 -54 113 -99 153 -234 209
-111 47 -136 53 -136 37z"/>
<path d="M2564 5436 c-32 -24 -3 -39 88 -46 88 -7 111 -4 105 13 -13 39 -152
63 -193 33z"/>
<path d="M6440 5390 c-25 -4 -63 -13 -85 -20 -22 -6 -89 -15 -150 -19 -99 -6
-117 -10 -185 -44 -41 -20 -105 -46 -142 -57 -54 -17 -89 -37 -175 -106 -59
-47 -136 -98 -169 -114 -54 -24 -70 -39 -134 -121 -39 -52 -100 -120 -135
-152 -70 -63 -155 -194 -207 -319 -30 -70 -31 -78 -29 -208 1 -148 12 -227 42
-305 13 -33 19 -75 19 -125 0 -72 2 -80 44 -150 25 -41 54 -107 64 -146 27
-97 37 -113 118 -197 63 -64 84 -78 187 -125 150 -68 227 -85 392 -85 228 0
386 38 401 97 11 44 -7 53 -114 59 -101 5 -154 20 -290 79 -60 26 -76 39 -96
72 -12 23 -52 86 -86 141 -50 78 -71 124 -97 210 -18 61 -41 135 -50 165 -13
42 -17 96 -17 227 -1 94 -4 174 -8 178 -11 11 -84 -32 -104 -62 -16 -24 -19
-46 -18 -163 1 -129 2 -139 33 -215 18 -44 44 -111 57 -150 47 -134 170 -333
226 -363 53 -30 70 -46 63 -64 -11 -28 -33 -29 -98 -3 -54 22 -76 40 -158 128
-85 91 -118 135 -221 291 -21 32 -32 69 -48 166 -24 148 -25 199 -6 266 8 27
17 92 20 144 6 83 12 106 49 185 48 104 136 205 228 260 38 24 68 52 93 90 38
58 127 125 223 167 26 11 70 36 100 54 29 19 65 39 80 45 64 24 226 51 345 56
112 5 135 3 190 -15 35 -11 90 -28 123 -37 111 -31 254 -116 377 -224 48 -42
133 -208 143 -279 8 -58 -31 -221 -68 -284 -27 -44 -129 -136 -174 -154 -46
-20 -117 -17 -161 5 -20 10 -71 53 -112 95 -41 42 -80 76 -88 76 -7 0 -23 -11
-36 -23 -47 -47 -45 -205 3 -277 34 -51 142 -136 190 -151 23 -7 81 -10 147
-7 128 5 151 14 263 109 76 64 139 150 164 222 70 206 79 274 57 457 -10 80
-55 217 -87 265 -35 52 -175 216 -233 272 -112 109 -254 183 -319 166 -9 -2
-57 3 -107 11 -94 17 -161 18 -234 6z"/>
<path d="M2810 5361 c0 -12 40 -41 57 -41 19 0 16 37 -3 44 -24 9 -54 7 -54
-3z"/>
<path d="M6573 4983 c-29 -6 -46 -28 -38 -52 5 -15 30 -28 101 -51 122 -39
158 -58 221 -114 58 -53 93 -60 93 -21 0 59 -52 117 -161 177 -87 48 -164 70
-216 61z"/>
<path d="M5746 4685 c-25 -25 -21 -55 8 -55 28 0 49 22 44 47 -4 24 -32 28
-52 8z"/>
<path d="M4420 4339 c0 -23 5 -69 11 -103 9 -52 8 -75 -10 -161 -12 -55 -26
-119 -33 -142 -24 -86 21 -68 64 24 29 65 31 75 34 216 4 161 -6 207 -46 207
-17 0 -20 -7 -20 -41z"/>
<path d="M3307 4233 c-27 -26 16 -128 54 -128 20 0 24 6 27 35 4 60 -51 124
-81 93z"/>
<path d="M8713 4193 c-19 -7 -16 -48 5 -65 9 -8 43 -27 74 -42 41 -19 81 -53
145 -120 133 -141 188 -248 249 -485 16 -62 17 -80 5 -188 -14 -136 -7 -177
32 -171 16 2 31 21 54 68 73 145 84 332 33 533 -39 151 -60 195 -119 249 -165
150 -393 256 -478 221z"/>
<path d="M1650 4096 c0 -9 7 -16 16 -16 9 0 14 5 12 12 -6 18 -28 21 -28 4z"/>
<path d="M4656 3900 c-117 -174 -126 -203 -69 -208 58 -6 126 86 179 242 27
78 31 126 11 126 -8 0 -62 -72 -121 -160z"/>
<path d="M8498 3919 c-32 -18 -19 -45 72 -154 97 -117 121 -167 204 -424 l37
-115 -9 -155 c-5 -86 -7 -164 -4 -173 6 -25 39 -22 66 5 13 13 37 66 55 119
32 95 32 95 26 249 -7 167 -28 265 -70 329 -12 20 -34 58 -48 85 -33 64 -169
198 -227 224 -50 23 -76 25 -102 10z"/>
<path d="M5890 3787 c0 -22 27 -57 43 -57 11 0 8 39 -3 61 -15 27 -40 24 -40
-4z"/>
<path d="M5970 3634 c0 -71 55 -122 168 -159 49 -16 55 -16 77 -1 14 9 25 21
25 27 0 20 -48 58 -88 68 -21 6 -66 29 -98 51 -69 47 -84 49 -84 14z"/>
<path d="M8164 3535 c-3 -8 4 -47 16 -87 34 -109 37 -199 10 -277 -42 -124
-104 -244 -149 -286 -24 -22 -76 -83 -116 -135 -40 -52 -84 -106 -99 -119 -83
-77 46 -84 158 -9 27 18 65 43 84 54 19 12 76 65 127 117 91 94 92 96 113 179
12 45 29 108 37 138 9 31 15 95 15 150 0 87 -3 99 -29 145 -63 107 -150 175
-167 130z"/>
<path d="M7742 3347 c-6 -7 -24 -60 -41 -119 -16 -58 -37 -119 -46 -135 -72
-126 -98 -160 -205 -260 -63 -59 -134 -123 -158 -142 -34 -27 -42 -39 -40 -60
3 -25 6 -26 75 -29 45 -2 84 2 105 11 67 28 178 109 233 169 97 107 137 174
158 263 29 128 31 158 13 213 -28 84 -68 121 -94 89z"/>
<path d="M8579 3200 c-20 -12 -34 -46 -54 -134 -19 -83 -43 -124 -99 -171 -50
-41 -85 -105 -93 -172 -6 -56 11 -79 51 -69 50 12 199 201 243 306 35 85 40
213 9 236 -23 16 -35 17 -57 4z"/>
<path d="M3881 3164 c-16 -14 -44 -48 -60 -77 -36 -62 -74 -99 -254 -247 -76
-62 -142 -121 -147 -131 -22 -40 36 -35 81 7 14 14 64 46 111 72 205 113 274
171 346 293 52 87 -3 146 -77 83z"/>
<path d="M7231 3151 c-16 -17 -39 -53 -52 -79 -37 -80 -65 -109 -187 -192 -64
-45 -138 -98 -164 -118 -26 -20 -95 -64 -153 -97 -123 -70 -143 -101 -79 -125
33 -13 161 22 249 68 50 25 90 57 140 110 39 41 107 111 152 156 73 71 88 92
124 174 22 51 39 100 37 110 -6 29 -37 25 -67 -7z"/>
<path d="M6679 3048 c-109 -77 -213 -164 -243 -202 -29 -39 -158 -98 -267
-122 -53 -12 -78 -26 -127 -66 -64 -52 -72 -65 -48 -74 29 -11 351 86 416 125
25 16 65 39 90 54 25 14 59 44 75 66 17 23 57 59 91 80 91 58 132 115 122 168
-6 32 -32 25 -109 -29z"/>
<path d="M5265 2932 c-16 -10 -104 -58 -195 -106 -91 -49 -196 -108 -233 -132
-63 -41 -68 -47 -65 -77 l3 -32 70 1 c99 0 155 19 216 71 29 24 97 76 152 115
71 50 103 80 113 104 17 41 17 39 -2 58 -19 20 -22 20 -59 -2z"/>
<path d="M4155 2874 c-97 -67 -120 -89 -111 -103 4 -6 23 -11 42 -11 71 0 194
89 194 141 0 44 -32 37 -125 -27z"/>
<path d="M4655 2913 c-37 -19 -104 -73 -218 -177 -70 -65 -87 -85 -85 -105 7
-57 66 -49 192 25 81 49 117 88 162 176 29 57 30 74 5 88 -24 12 -19 13 -56
-7z"/>
<path d="M5825 2878 c-44 -25 -174 -129 -194 -155 -29 -36 -10 -47 58 -32 64
13 106 42 148 100 51 72 45 120 -12 87z"/>
</g>
</svg>
