<?xml version="1.0" standalone="no"?>
<!DOCTYPE svg PUBLIC "-//W3C//DTD SVG 20010904//EN"
 "http://www.w3.org/TR/2001/REC-SVG-20010904/DTD/svg10.dtd">
<svg version="1.0" xmlns="http://www.w3.org/2000/svg"
 width="1080.000000pt" height="1080.000000pt" viewBox="0 0 1080.000000 1080.000000"
 preserveAspectRatio="xMidYMid meet">
<metadata>
Created by potrace 1.16, written by Peter Selinger 2001-2019
</metadata>
<g transform="translate(0.000000,1080.000000) scale(0.100000,-0.100000)"
fill="#000000" stroke="none">
<path d="M4892 9040 c-583 -49 -1168 -318 -1532 -706 -248 -264 -436 -653
-482 -995 l-11 -87 -65 -17 c-215 -54 -508 -187 -713 -324 -640 -427 -1003
-942 -1121 -1589 -28 -156 -31 -508 -5 -683 73 -490 276 -901 563 -1141 104
-86 180 -135 298 -188 l96 -45 -5 -55 c-8 -71 27 -195 95 -339 193 -404 525
-586 1225 -671 363 -44 854 -50 1922 -25 346 8 952 19 1348 25 978 14 1408 30
1775 66 757 73 1155 244 1490 639 238 281 339 559 327 900 -7 173 -29 293 -88
470 -141 425 -421 762 -779 940 -41 21 -76 38 -78 40 -1 1 8 42 20 91 32 128
32 403 0 550 -72 333 -248 649 -501 903 -383 382 -941 639 -1541 709 l-64 7
-27 104 c-35 136 -68 219 -146 371 -182 356 -482 642 -877 834 -292 143 -559
209 -881 220 -77 2 -186 1 -243 -4z m428 -696 c290 -59 549 -204 785 -439 181
-180 255 -301 351 -580 32 -95 38 -125 42 -220 8 -205 -73 -513 -243 -931 -47
-114 -85 -214 -85 -221 0 -33 40 0 211 175 319 325 468 505 546 659 l38 75 70
-5 c265 -20 664 -168 929 -344 120 -80 301 -256 368 -358 67 -101 124 -220
154 -321 36 -119 45 -341 20 -484 -34 -196 -120 -398 -256 -605 -177 -267
-318 -423 -525 -581 -99 -75 -115 -91 -115 -115 0 -48 25 -53 166 -29 435 74
732 234 979 530 l65 78 88 -34 c211 -83 324 -197 424 -427 75 -173 91 -245 92
-402 1 -121 -2 -149 -22 -206 -59 -172 -206 -345 -372 -437 -72 -40 -239 -96
-366 -121 -356 -72 -858 -104 -1939 -121 -357 -5 -873 -15 -1145 -20 -1394
-29 -1497 -30 -1789 -20 -585 20 -797 66 -872 187 -22 36 -21 91 4 111 6 5 48
12 91 16 339 30 656 175 827 379 166 197 239 495 194 787 -22 144 -40 204
-102 330 -49 102 -66 125 -143 203 -72 72 -102 94 -171 126 -216 100 -442 97
-832 -11 -81 -22 -158 -49 -170 -59 -42 -34 -11 -42 185 -50 398 -16 578 -86
654 -254 63 -139 54 -347 -22 -504 -35 -70 -123 -160 -194 -196 -218 -111
-738 -125 -1030 -28 -100 33 -169 74 -246 145 -175 164 -294 467 -325 832 -22
265 30 545 142 769 140 276 378 536 592 643 125 64 326 104 514 104 50 0 103
4 116 9 23 9 28 4 71 -64 218 -345 554 -583 931 -661 130 -27 376 -25 501 3
209 49 367 134 510 277 140 141 227 301 270 501 21 96 21 282 0 365 -97 381
-514 587 -849 419 -115 -58 -247 -157 -247 -186 0 -12 19 -13 123 -7 141 8
211 -3 302 -47 136 -64 182 -135 191 -295 12 -207 -67 -378 -210 -451 -145
-74 -378 -69 -554 13 -222 102 -381 292 -474 567 -26 78 -32 111 -36 220 -5
148 7 240 50 377 126 398 453 699 933 859 281 94 577 121 805 75z"/>
<path d="M5985 5483 c-137 -12 -338 -64 -465 -120 -162 -71 -339 -204 -437
-327 -275 -349 -286 -883 -21 -1147 110 -110 300 -193 536 -234 85 -14 378
-45 434 -45 57 0 31 29 -64 72 -246 111 -389 198 -489 298 -73 72 -111 138
-135 232 -43 167 56 411 238 588 189 183 532 278 818 226 159 -29 253 -86 286
-173 24 -62 24 -181 1 -217 -23 -35 -83 -49 -173 -41 -51 5 -74 4 -74 -3 0
-16 116 -92 172 -114 62 -23 141 -23 195 1 123 56 213 245 199 421 -10 141
-59 246 -162 347 -58 58 -93 82 -176 122 -191 94 -442 136 -683 114z"/>
</g>
</svg>
