<svg xmlns="http://www.w3.org/2000/svg" width="1440" height="1440" version="1.0" viewBox="0 0 1080 1080"><path d="M456.5 75.1c-60.2 5.2-123 25.5-175.1 56.8-83.1 50-141.4 131.2-171.9 239.5C88 447.6 83.8 528.1 96.6 616c11.5 79.3 40.4 175 73 241.9 12.4 25.5 17.7 35 29.9 53.6 12.2 18.7 21.6 30.5 34.9 44.3 26 26.9 53.4 43.7 83.1 51.3 15.1 3.8 24.9 4.9 42.5 4.9 66.5 0 150.3-38.5 233-107 51.7-42.8 100.9-106.1 145.6-187.5 7.1-12.9 10.2-17.6 11.8-18 1.1-.2 4.8-.7 8.1-1 21.2-2.2 54-11.9 73.7-21.9 42.9-21.6 95.4-62.8 154.7-121.1 28.4-27.9 45-48 52.2-63 12.7-26.4.5-52.2-27.1-57.6-10.7-2.1-42-1.5-76 1.4-49.1 4.3-59.8 4.8-114 5.7-61.8 1.1-65.1 1.5-104 14.2-30.5 9.9-86 31.5-95.7 37.2-7.9 4.6-10.9 10-10 18.2 1.1 10.2 7.7 16.5 17.5 16.6 2.6 0 16.4-2.8 30.7-6.2 56.9-13.4 78.4-16.9 111.5-17.7 18.5-.4 27.9-.2 44 1.3 12.3 1.1 29.5 1.8 43 1.8 23.4.1 30.9-.7 76.6-7.8 7.9-1.2 14.4-1.9 14.4-1.4 0 1.6-33.4 35.8-51.2 52.4-47.5 44.5-77.1 66.2-117.3 85.9-34.5 17-66.1 23.2-126.6 24.8-15.2.4-18.7 1.6-22.1 7.5-2.6 4.4-2.4 13 .5 17.2 4.1 6 11 8.1 36.2 11 9.9 1.2 18.4 2.2 18.8 2.3 1.9.5-28.7 39.8-48.3 62.2-23.3 26.6-43.6 46-81 77.6-42.9 36.1-78.7 60.3-114 77.2-52.6 25.1-93.9 30.2-124.4 15.3C271 907.5 225.5 829 190.5 707c-14.9-52-24.1-101.5-27.4-147.2-1.4-18.5-1.4-58.5-.1-75.4 4.7-61 18.9-114.6 43.5-164.9 31.7-64.7 74.1-107.9 136-138.4 30.9-15.3 63.3-25.5 97.8-31.1 70.6-11.3 137.6 3.5 199.1 43.8 14.6 9.6 27.7 20.5 40.6 33.8 14.3 14.8 23.1 27.1 31.5 43.9C727 302.5 734 338 738 405.9c.6 9.5 1.3 17.7 1.6 18.2.3.5 2 1.7 3.7 2.7 2.7 1.5 6 1.7 22.7 1.6 28.5-.1 43.1-2.9 44.6-8.8 1.2-5.1-3.1-61-6.7-86.1-10-69.5-32.7-117.6-75.8-160.5-48.5-48.2-119.3-83.8-188.6-94.9-25.3-4-57.4-5.2-83-3z"/></svg>