<svg xmlns="http://www.w3.org/2000/svg" width="1440" height="1440" version="1.0" viewBox="0 0 1080 1080"><path d="M487 189c-52 7-94 24-128 52-34 29-57 74-62 117l-1 8-12 4c-19 4-30 8-46 16-21 11-46 28-65 46-47 46-70 102-65 160 5 72 39 126 93 147l11 4 1 5c3 24 10 43 21 58 9 11 23 22 37 27 41 16 87 20 191 18l64-1 115-2c100-2 133-3 165-5 60-4 98-14 126-32 10-6 33-29 41-41 21-29 27-62 19-98a170 170 0 0 0-42-82c-12-11-21-17-37-25-9-4-12-6-11-7l5-26c3-26-5-59-20-87-31-54-99-96-172-104-19-3-18-2-18-6 0-9-7-29-16-46a197 197 0 0 0-195-100zm44 49c26 5 53 19 76 38 22 19 34 37 42 62 6 16 7 23 7 34 0 20-13 60-35 104-8 15-7 15 9-3 39-43 52-61 60-82l2-4h5c8 0 26 3 38 7 61 17 104 52 118 97 5 14 6 25 6 38-2 19-5 33-15 53-7 13-14 24-26 40-15 18-29 31-53 46-4 3-6 5-6 7 0 1 0 2 5 1 8 0 30-6 43-11 16-6 32-16 43-26l26-31c1-1 1-1 9 1 25 9 40 22 52 47 17 37 16 65-4 92-27 37-65 46-208 49a17628 17628 0 0 1-364 4c-29-2-51-6-59-10-6-3-12-9-14-13s-2-6-2-15l2-13 9-3c10-2 30-8 39-13 31-17 45-40 45-74 0-39-17-65-48-73a175 175 0 0 0-70 4l16 3c35 5 52 14 58 30 2 4 2 8 3 16 1 17-3 27-16 40-8 8-15 12-29 16-28 8-62 6-85-7s-40-37-48-71c-4-15-5-24-5-40 0-36 11-66 37-97 27-31 53-45 90-48l17-1h8l3 5c12 24 41 52 64 63 33 14 70 15 99 0 23-11 39-30 47-56 3-10 4-29 2-40-4-22-23-41-46-46-12-2-21-1-33 4-7 3-25 15-25 16l5 1 13-2c11-1 20 0 29 4 13 6 18 13 21 27 4 23-7 48-25 56-18 9-43 8-63-1a102 102 0 0 1-54-86c0-21 4-39 14-59 14-27 33-45 64-60 21-10 38-16 60-19 12-2 36-2 47-1z"/><path d="M599 538c-10 1-26 4-32 7-36 13-60 36-70 68-3 11-4 33-2 44 5 24 21 40 47 49 13 4 61 12 63 10 1-1 2-1-13-7-27-11-46-22-54-32l-6-11c-3-5-3-8-4-16 0-12 1-19 7-30 11-24 31-39 59-47 8-2 12-2 27-2 14-1 18 0 24 2 18 5 26 12 28 26 0 6-1 15-4 19-3 2-3 2-11 2h-15c0 1 11 8 16 9 16 6 31-4 35-25 6-31-15-56-56-64-7-2-32-3-39-2z"/></svg>