<?xml version="1.0" standalone="no"?>
<!DOCTYPE svg PUBLIC "-//W3C//DTD SVG 20010904//EN"
 "http://www.w3.org/TR/2001/REC-SVG-20010904/DTD/svg10.dtd">
<svg version="1.0" xmlns="http://www.w3.org/2000/svg"
 width="1080.000000pt" height="1080.000000pt" viewBox="0 0 1080.000000 1080.000000"
 preserveAspectRatio="xMidYMid meet">
<metadata>
Created by potrace 1.16, written by Peter Selinger 2001-2019
</metadata>
<g transform="translate(0.000000,1080.000000) scale(0.100000,-0.100000)"
fill="#000000" stroke="none">
<path d="M6868 7087 c-483 -1095 -876 -1992 -874 -1994 2 -2 268 163 591 367
323 204 589 369 591 367 2 -2 -61 -1045 -141 -2318 -80 -1273 -145 -2329 -145
-2347 0 -30 39 14 427 477 235 281 429 511 432 511 3 0 197 -229 431 -508 313
-375 426 -503 428 -488 1 12 -63 1067 -143 2345 -80 1278 -144 2326 -142 2327
2 2 268 -163 591 -367 324 -203 590 -369 592 -367 4 5 -1744 3970 -1754 3980
-4 3 -402 -890 -884 -1985z"/>
<path d="M4888 8989 c-307 -25 -648 -125 -936 -275 -458 -237 -772 -580 -948
-1034 -41 -108 -91 -300 -100 -386 l-6 -61 -94 -26 c-501 -141 -1044 -519
-1369 -952 -227 -304 -358 -609 -411 -957 -21 -137 -24 -420 -5 -558 86 -642
406 -1135 886 -1365 l93 -45 17 -72 c26 -106 73 -244 107 -313 115 -229 297
-407 522 -510 424 -193 969 -251 2121 -226 286 6 831 16 1210 22 380 7 693 14
696 18 7 6 63 651 57 656 -5 3 -1051 -13 -1493 -25 -525 -13 -1369 -13 -1567
0 -571 39 -757 128 -695 334 12 38 13 38 102 61 404 103 660 322 761 650 26
84 28 102 28 265 0 163 -2 181 -28 265 -114 372 -372 543 -786 521 -116 -6
-385 -46 -410 -61 -17 -11 -11 -35 13 -45 12 -5 72 -19 132 -31 284 -55 449
-140 513 -263 37 -73 43 -206 13 -304 -39 -128 -139 -238 -276 -302 -102 -48
-181 -68 -327 -82 -282 -28 -536 47 -708 208 -299 282 -422 862 -278 1313 76
241 257 513 457 690 219 192 386 249 778 264 l102 4 47 -71 c74 -112 126 -175
216 -264 217 -214 471 -345 752 -389 145 -22 348 -13 481 21 297 77 538 274
661 541 123 266 118 576 -11 772 -170 257 -497 353 -758 222 -115 -59 -256
-166 -244 -186 4 -7 52 -9 140 -5 149 5 207 -6 310 -61 107 -56 149 -129 162
-282 13 -142 -44 -306 -136 -389 -120 -108 -352 -135 -559 -66 -254 84 -477
350 -551 655 -64 267 21 618 213 877 232 312 665 534 1148 589 382 43 775 -94
1100 -386 210 -187 311 -343 406 -621 39 -113 49 -157 53 -233 l6 -94 204 458
205 459 -43 80 c-241 461 -786 844 -1364 961 -206 41 -396 52 -609 34z"/>
<path d="M8560 5423 c-1 -35 72 -894 78 -917 7 -28 7 -28 75 52 l68 80 97 -39
c197 -80 294 -174 401 -388 119 -237 152 -484 88 -654 -52 -134 -173 -289
-287 -367 -76 -52 -126 -75 -227 -110 -53 -17 -89 -35 -91 -44 -4 -16 47 -628
52 -633 6 -7 185 50 289 92 460 185 833 630 914 1090 20 119 13 371 -16 500
-23 105 -80 283 -119 372 l-27 62 -585 412 c-322 226 -613 431 -647 456 -35
24 -63 40 -63 36z"/>
</g>
</svg>
