<svg xmlns="http://www.w3.org/2000/svg" width="1440" height="1440" version="1.0" viewBox="0 0 1080 1080"><path d="m475 168-81 148a2828 2828 0 0 0 116-61v181l23 23 23 23V230l19-10c13-7 19-11 19-12L556 20l-81 148z"/><path d="M427 348c-95 7-132 16-184 40-28 14-36 20-43 33-4 9-5 17-3 26 3 14 14 31 58 87l21 27 5 7-3 3-7 9c-2 4-2 6-2 12l1 8-17 10c-66 39-103 73-124 113-19 37-22 82-8 130 8 27 23 57 41 80 9 12 27 30 38 39 41 32 93 49 181 61a1081 1081 0 0 0 325-1c100-14 154-36 197-82 17-17 29-34 40-58 34-68 33-135-3-188-19-28-51-56-95-84a2719 2719 0 0 0-58-35c0-2 7-10 34-46 50-64 59-78 62-92s-2-28-14-40c-7-5-10-8-29-17-48-23-85-33-153-39-40-4-46-4-48-2v2l17 4c89 20 128 38 165 73l11 13-48 64c-38 49-44 59-47 75-2 14 2 27 14 39 8 8 13 12 45 31 62 37 88 58 107 87 10 18 15 35 15 57a177 177 0 0 1-115 164 964 964 0 0 1-503 8c-55-16-92-45-117-92-14-27-21-53-21-80 0-32 10-56 36-83 19-19 42-35 84-60 30-18 39-24 47-32 12-12 17-26 14-40-4-17-9-24-52-81l-43-57a205 205 0 0 1 82-59c21-8 55-18 98-28 14-3 15-3 13-5l-2-2-12 1z"/><path d="M294 442a222 222 0 0 0 148 50c4-3 6-6 6-13 0-10-2-13-17-13a480 480 0 0 1-117-21c-17-5-20-6-20-4zM769 444a467 467 0 0 1-113 21c-22 1-24 3-24 13 0 7 1 11 6 14h17c46-4 62-9 106-34 20-11 25-15 25-17s-4-1-17 3zM557 611v126l-19 10-19 12 38 188 162-296a2463 2463 0 0 0-116 61V531l-23-23-23-23v126zM141 510c-4 2-7 13-7 27 0 11 1 16 5 17l28 1c33-1 42 1 78 11 14 4 14 4 16 2 4-3 3-5-10-14-32-22-56-33-92-42-14-3-14-3-18-2zM184 583c-19 2-39 7-62 16-17 6-19 7-21 12-1 4 0 9 5 19 3 8 9 14 13 16 3 1 6 0 17-7 29-17 62-32 103-43 16-5 20-7 20-9l-1-3c-2-1-3-2-34-2l-40 1z"/></svg>