<svg xmlns="http://www.w3.org/2000/svg" width="1440" height="1440" version="1.0" viewBox="0 0 1080 1080"><path d="M992 37c-9 1-22 7-35 16-19 13-31 24-115 108-70 69-77 75-145 135-34 28-51 44-71 63-28 28-33 35-54 62-22 30-28 39-49 80-21 39-42 87-77 175a2132 2132 0 0 1-170 363c-1 4 0 6 3 6s7-4 22-23a1283 1283 0 0 0 192-332c38-89 58-131 81-172a666 666 0 0 1 163-186c67-56 80-69 162-150 56-56 83-82 84-81l-10 87c-8 53-17 85-34 118-14 27-26 43-48 64a529 529 0 0 1-96 74c-3 6 2 15 9 15a571 571 0 0 0 139-76l-12 36c-11 27-27 56-47 83a414 414 0 0 1-102 87l-21 15c-3 5 0 12 6 16h7a888 888 0 0 0 104-55c19-12 18-12 18-10a498 498 0 0 1-190 241c-3 6 3 15 9 15s70-37 95-55c68-48 95-85 123-165a699 699 0 0 0 29-115c18-41 30-92 37-160l4-20c11-28 20-68 26-117 11-82 11-105 2-121-8-17-22-24-39-21zM97 48c-11 2-22 9-28 18-8 11-10 26-9 47 2 27 9 52 37 143a1097 1097 0 0 1 49 225l5 41c4 28 14 46 33 64 21 20 47 34 96 50a1046 1046 0 0 0 69 17l2-4c0-3-1-3-30-19-52-27-82-47-97-66-14-18-19-33-23-83-6-71-12-107-30-169a2986 2986 0 0 0-45-150c-6-19-14-55-14-57s4 0 18 9a267 267 0 0 1 81 74c20 31 32 71 41 136l3 18c3 6 9 9 14 6 6-3 7-7 5-38-2-37-4-61-8-81-4-15-4-14 4-6 15 16 27 33 40 56 17 33 24 61 30 116 2 19 3 21 6 24 4 4 14 2 16-3s2-29 1-54l-1-26a410 410 0 0 1 42 72c9 20 16 48 21 81 2 17 4 19 13 19 4 0 6-1 8-3l4-3-1-20c0-26-1-45-5-64-7-44-18-67-48-101-9-11-34-35-44-44-6-5-8-7-11-14-15-31-45-63-93-102-17-13-16-12-27-27-23-31-55-60-80-73-17-8-33-11-44-9z"/></svg>