<svg xmlns="http://www.w3.org/2000/svg" width="1440" height="1440" version="1.0" viewBox="0 0 1080 1080"><path d="m844 195-31 38-31-38c-24-30-30-37-31-35a43974 43974 0 0 0 30 576 1899 1899 0 0 1-134-46l166 290 163-284 3-6-11 4-124 43a65720 65720 0 0 1 31-580l-31 38z"/><path d="M487 189c-52 7-94 24-128 52-34 29-57 74-62 117l-1 8-12 4c-19 4-30 8-46 16-21 11-46 28-65 46-47 46-70 102-65 160 5 72 39 126 93 147l11 4 1 5c4 30 15 54 31 68 19 17 51 28 96 33 36 3 74 3 207 0l59-1h22l-12-24-13-24h-29l-71 1c-53 2-123 2-143 0-28-2-50-6-58-10-6-3-12-9-14-13s-2-6-2-15l2-13 9-3c10-2 30-8 39-13 31-17 45-40 45-74 0-39-17-65-48-73a175 175 0 0 0-70 4l16 4c34 5 52 13 58 29 2 4 2 8 3 16 0 18-3 28-16 40-8 8-15 12-29 16-28 8-63 6-85-7-23-13-40-37-48-71-4-15-5-24-5-40 0-36 11-66 37-96 27-32 53-46 90-48l17-1 8-1 3 5c12 24 40 52 64 63 33 14 70 15 99 0 23-11 39-30 47-56 3-10 4-29 2-40-4-22-23-41-46-46-12-2-21-1-34 5-6 2-24 14-24 15l5 1 13-2c11-1 20 0 29 4 13 6 18 13 21 27 4 23-7 48-25 56-19 9-43 8-63-1a102 102 0 0 1-54-85 131 131 0 0 1 77-119c30-15 56-22 85-22 17 0 28 2 43 7 20 7 38 17 56 32 22 19 34 37 42 62 6 17 7 23 7 34 0 21-13 60-36 104-7 15-6 15 10-3 39-43 52-61 60-82l2-4h13l-1-24c-2-23-2-24-5-24-2-1-2-2-2-4 0-9-7-29-16-46a197 197 0 0 0-195-100zM906 565a733 733 0 0 0-4 48c-1 2 0 3 4 6 7 4 16 13 22 22l6 8 22-10 21-10-3-5c-8-16-23-35-37-45-6-5-28-17-30-17l-1 3z"/></svg>