<svg xmlns="http://www.w3.org/2000/svg" width="1440" height="1440" version="1.0" viewBox="0 0 1080 1080"><path d="M736 275c-46 79-83 145-82 145a2768 2768 0 0 0 133-46 133034 133034 0 0 1-30 579 1636 1636 0 0 0 61-74c1-1 9 9 31 36 26 33 31 37 31 35a42508 42508 0 0 0-30-575l67 22 66 23-81-144-83-144c0-2-22 35-83 143z"/><path d="M487 189c-52 7-94 24-128 52-34 29-57 74-62 117l-1 8-12 4c-19 4-30 8-46 16-21 11-46 28-65 46-47 46-70 102-65 160 5 72 39 126 93 147l11 4 1 5c4 30 15 54 31 68 12 11 24 17 47 24 24 7 48 10 92 11a12854 12854 0 0 1 262-4h56l2-24 2-25c-1-1-164 2-204 3H361c-29-2-51-6-59-10-6-3-12-9-14-13s-2-6-2-15l2-13 9-3c10-2 30-8 39-13 31-17 45-40 45-74 0-39-17-65-48-73a175 175 0 0 0-70 4l16 4c34 5 52 13 58 29 2 4 2 8 3 16 1 18-3 28-16 40-8 8-15 12-29 16-28 8-62 6-85-7s-40-37-48-71c-4-15-5-24-5-40 0-36 11-66 37-96 27-32 53-46 90-48l17-1 8-1 3 5c12 24 41 52 64 63 33 14 70 15 99 0 23-11 39-30 47-56 3-10 4-29 2-40-4-22-23-41-46-46-12-2-21-1-33 5-7 2-25 14-25 15l5 1 13-2c11-1 20 0 29 4 13 6 18 13 21 27 4 23-7 48-25 56-18 9-43 8-63-1a102 102 0 0 1-54-85 131 131 0 0 1 77-119c30-15 56-22 85-22 17 0 28 2 43 7 23 8 41 19 61 37l8 8 13-24 12-24-7-6c-27-22-61-38-96-45-8-1-48-2-56-1zM913 567l3 32 2 29 3 3c7 8 17 27 22 42 10 30 7 51-9 74l-6 7 3 28 2 28c2 2 30-26 40-40 21-29 27-62 19-98-10-47-37-85-71-103-8-4-8-4-8-2z"/></svg>