<svg xmlns="http://www.w3.org/2000/svg" width="1440" height="1440" version="1.0" viewBox="0 0 1080 1080"><path d="m443 154-89 130a3126 3126 0 0 0 125-43 4023 4023 0 0 1-19 200 1652 1652 0 0 0 71-72c1 0 18 16 37 36 35 35 36 36 36 32l-19-196 63 22 62 21L532 23l-89 131z"/><path d="M336 332c-57 5-86 17-124 48-15 13-20 22-21 40-1 23 3 29 72 131l21 31-23 14c-49 29-75 46-99 71-13 12-20 21-29 34-37 55-38 124-4 194 13 25 26 45 45 64 44 44 97 66 193 81 54 8 97 11 158 12 70 1 121-3 185-12 85-13 136-31 178-64a238 238 0 0 0 88-194c-5-45-22-80-58-115-24-24-48-42-97-70l-25-15 17-26c74-108 77-113 76-136-1-18-6-27-22-40-37-32-69-44-127-49-7 0-8 0-9 2v3l15 7c40 18 57 32 69 57 3 7 8 19 8 22l-57 87c-31 46-37 58-37 77 0 15 5 27 18 40 8 8 19 15 52 35 37 22 57 37 75 54 28 27 39 55 36 89-2 21-7 39-17 60-21 43-51 71-94 88-39 15-103 26-185 32-29 2-115 2-141 0-75-5-135-14-175-27-53-16-88-45-111-93-19-40-23-79-10-109 5-12 15-26 28-38 19-20 39-34 82-59 30-18 38-24 47-33 12-12 17-24 17-38 0-20-5-32-37-78l-40-60-17-26 1-5c2-8 11-26 17-34 11-14 28-26 57-40l17-8v-3c-1-2-4-2-13-1z"/><path d="M312 426c-2 3-2 3-1 6a286 286 0 0 0 154 93 316 316 0 0 0 257-49c11-8 44-40 47-44v-6l-4-2c-2 0-7 3-12 7a332 332 0 0 1-156 58c-22 2-92 2-114 0-28-3-50-8-73-16-29-9-46-18-75-37l-20-12-3 2z"/></svg>