<svg xmlns="http://www.w3.org/2000/svg" width="1440" height="1440" version="1.0" viewBox="0 0 1080 1080"><path d="M508 142.5c-71.3 6.2-149.1 35.6-209.5 79.3C189.8 300.4 125.6 433.2 134 562.1c5.7 87.6 45.5 176.4 109.8 244.9 82.2 87.6 201.5 137.7 313.7 131.9 92.2-4.8 180.1-42.9 240.1-104.1 41.6-42.4 73.7-105.8 88.7-175.1 1.8-8.1 3.7-14.7 4.2-14.7.6 0 22.5 14.2 48.9 31.5 26.3 17.4 48 31.4 48.2 31.2.3-.2-30.5-78.3-68.2-173.6-37.8-95.2-68.8-173-69-172.8-.5.5-210.4 344.9-210.4 345.2 0 .2 35.8-15.6 79.6-35.1s79.8-35.3 80.1-35c.6.5-5.8 20.6-10.3 32.6-5.9 15.4-17 38.3-24.6 50.8-9.5 15.5-18.8 27.4-31.7 40.5-38.8 39.6-89.8 65.1-150.6 75.3-14.6 2.5-18.4 2.7-42.5 2.7-23.9 0-28-.3-42.3-2.7-131.4-22-231.3-121.9-253.3-253.3-2.4-14.3-2.7-18.3-2.7-42.3 0-24.1.3-28 2.7-42.5 20-119.6 104.6-211.6 222.7-242 44.6-11.5 86.5-12.9 135.9-4.5 26.6 4.5 49.8 10.8 101.5 27.5 39.4 12.8 53.5 16.7 68 19.1 22.2 3.6 36.1-1.9 41.5-16.2 4.1-11 1.7-24.8-6.7-38.8-27.2-44.8-121.7-88-216.8-99.1-24-2.8-56.8-3.2-82.5-1z"/></svg>