<?xml version="1.0" standalone="no"?>
<!DOCTYPE svg PUBLIC "-//W3C//DTD SVG 20010904//EN"
 "http://www.w3.org/TR/2001/REC-SVG-20010904/DTD/svg10.dtd">
<svg version="1.0" xmlns="http://www.w3.org/2000/svg"
 width="1080.000000pt" height="1080.000000pt" viewBox="0 0 1080.000000 1080.000000"
 preserveAspectRatio="xMidYMid meet">
<metadata>
Created by potrace 1.16, written by Peter Selinger 2001-2019
</metadata>
<g transform="translate(0.000000,1080.000000) scale(0.100000,-0.100000)"
fill="#000000" stroke="none">
<path d="M4888 8989 c-307 -25 -648 -125 -936 -275 -458 -237 -772 -580 -948
-1034 -41 -108 -91 -300 -100 -386 l-6 -61 -94 -26 c-501 -141 -1044 -519
-1369 -952 -227 -304 -358 -609 -411 -957 -21 -137 -24 -420 -5 -558 86 -642
406 -1135 886 -1365 l93 -45 17 -72 c26 -106 73 -244 107 -313 115 -229 297
-407 522 -510 424 -193 970 -251 2116 -226 283 6 846 16 1250 23 404 6 737 13
739 14 2 2 -61 150 -140 330 l-144 326 -465 -7 c-256 -3 -616 -10 -800 -15
-452 -13 -1343 -12 -1532 0 -571 39 -757 128 -695 334 12 38 13 38 102 61 404
103 660 322 761 650 26 84 28 102 28 265 0 163 -2 181 -28 265 -114 372 -372
543 -786 521 -116 -6 -385 -46 -410 -61 -17 -11 -11 -35 13 -45 12 -5 72 -19
132 -31 284 -55 449 -140 513 -263 37 -73 43 -206 13 -304 -39 -128 -139 -238
-276 -302 -102 -48 -181 -68 -327 -82 -282 -28 -536 47 -708 208 -299 282
-422 862 -278 1313 76 241 257 513 457 690 219 192 386 249 778 264 l102 4 47
-71 c74 -112 126 -175 216 -264 217 -214 471 -345 752 -389 145 -22 348 -13
481 21 297 77 538 274 661 541 123 266 118 576 -11 772 -170 257 -497 353
-758 222 -115 -59 -256 -166 -244 -186 4 -7 52 -9 140 -5 149 5 207 -6 310
-61 107 -56 149 -129 162 -282 13 -142 -44 -306 -136 -389 -120 -108 -352
-135 -559 -66 -254 84 -477 350 -551 655 -64 267 21 618 213 877 232 312 665
534 1148 589 382 43 775 -94 1100 -386 210 -187 311 -342 406 -621 64 -185 69
-271 29 -471 -45 -228 -98 -392 -230 -714 -41 -101 -75 -189 -75 -196 0 -7 6
-13 14 -13 15 0 356 349 489 500 l74 85 -77 928 c-76 911 -78 929 -101 954
-49 53 -207 179 -309 246 -405 266 -878 386 -1362 346z"/>
<path d="M6857 8699 c27 -379 287 -4621 283 -4623 -3 -2 -239 145 -525 325
-286 181 -553 349 -593 374 l-72 45 14 -33 c29 -69 1739 -3943 1745 -3955 5
-8 359 782 876 1955 477 1082 874 1983 882 2000 12 31 4 27 -159 -76 -95 -60
-362 -229 -593 -374 l-420 -265 -3 41 c-1 23 63 1079 142 2347 80 1268 143
2306 142 2307 -1 2 -193 -224 -425 -502 -232 -277 -426 -507 -431 -510 -5 -3
-192 214 -416 482 -224 269 -417 499 -430 512 l-23 24 6 -74z"/>
<path d="M8710 6685 c-118 -1380 -184 -2212 -175 -2207 17 11 819 574 843 593
l23 18 -60 40 c-33 23 -101 62 -151 88 -61 31 -89 51 -86 60 46 119 55 427 17
602 -60 282 -191 552 -378 777 -18 22 -33 35 -33 29z"/>
<path d="M9747 4650 c-8 -19 -89 -201 -179 -405 l-166 -370 -4 -125 c-4 -104
-9 -136 -32 -194 -36 -94 -120 -218 -200 -294 l-65 -63 -177 -396 c-97 -219
-178 -403 -181 -409 -11 -30 309 72 462 146 344 167 653 519 770 876 45 139
58 241 52 419 -7 182 -25 283 -87 469 -38 111 -129 314 -163 361 -14 19 -15
18 -30 -15z"/>
</g>
</svg>
